<?xml version="1.0" standalone="no"?>
<!DOCTYPE svg PUBLIC "-//W3C//DTD SVG 20010904//EN"
 "http://www.w3.org/TR/2001/REC-SVG-20010904/DTD/svg10.dtd">
<svg version="1.0" xmlns="http://www.w3.org/2000/svg"
 width="542.000000pt" height="542.000000pt" viewBox="0 0 542.000000 542.000000"
 preserveAspectRatio="xMidYMid meet">
<g transform="translate(0.000000,542.000000) scale(0.100000,-0.100000)"
fill="#000000" stroke="none">
<path d="M2067 3567 c-15 -23 -17 -103 -20 -894 -2 -536 0 -876 6 -889 13 -31
43 -41 116 -38 50 2 69 8 85 24 21 21 21 22 21 898 0 1017 13 913 -115 920
-73 4 -77 3 -93 -21z m169 -18 c9 -7 12 -233 12 -884 l0 -874 -27 -9 c-32 -11
-132 -4 -146 10 -7 8 -6 8 4 3 10 -6 12 -4 5 6 -14 23 -12 1721 3 1737 6 6 19
12 27 12 9 0 16 5 16 10 0 12 89 3 106 -11z"/>
<path d="M3050 3370 c0 -40 2 -71 4 -69 7 7 10 129 3 136 -4 3 -7 -27 -7 -67z"/>
<path d="M3110 3424 c0 -8 5 -12 10 -9 6 4 8 11 5 16 -9 14 -15 11 -15 -7z"/>
<path d="M2785 3420 c3 -5 8 -10 11 -10 2 0 4 5 4 10 0 6 -5 10 -11 10 -5 0
-7 -4 -4 -10z"/>
<path d="M2895 3421 c-4 -7 0 -8 11 -4 15 5 16 0 12 -51 -3 -31 -1 -59 4 -62
5 -3 8 22 6 57 -3 58 -17 85 -33 60z"/>
<path d="M3192 3273 l-2 -163 115 0 115 0 0 30 c0 17 -5 30 -10 30 -6 0 -10
-6 -9 -12 4 -36 0 -38 -101 -38 l-99 0 -4 158 -3 157 -2 -162z"/>
<path d="M3248 3423 c7 -3 16 -2 19 1 4 3 -2 6 -13 5 -11 0 -14 -3 -6 -6z"/>
<path d="M3404 3407 c1 -14 -6 -23 -19 -25 -36 -7 -36 -18 0 -14 29 3 35 8 35
28 0 12 -4 25 -8 28 -5 3 -8 -5 -8 -17z"/>
<path d="M2552 3395 c0 -16 2 -22 5 -12 2 9 2 23 0 30 -3 6 -5 -1 -5 -18z"/>
<path d="M2841 3410 c0 -8 4 -24 9 -35 5 -13 9 -14 9 -5 0 8 -4 24 -9 35 -5
13 -9 14 -9 5z"/>
<path d="M2721 3366 c-8 -9 -11 -51 -8 -127 l3 -114 2 117 c1 82 6 118 15 121
6 2 9 7 6 11 -3 4 -11 0 -18 -8z"/>
<path d="M2770 3370 c0 -5 7 -10 16 -10 8 0 12 5 9 10 -3 6 -10 10 -16 10 -5
0 -9 -4 -9 -10z"/>
<path d="M1825 3344 c-14 -10 -22 -11 -32 -3 -10 9 -13 8 -13 -4 0 -8 -5 -17
-11 -19 -8 -3 -12 -62 -14 -190 l-2 -186 56 -39 c76 -52 101 -92 101 -160 0
-84 -37 -141 -120 -183 l-38 -19 -1 -379 c-2 -446 -12 -411 117 -413 70 -1 85
1 97 17 12 16 14 138 15 774 0 667 -2 758 -16 778 -16 23 -63 54 -50 33 9 -13
0 -14 -40 -2 -21 6 -36 5 -49 -5z m20 -24 c-4 -6 13 -10 44 -10 27 0 53 -5 57
-11 8 -14 8 -560 -1 -601 -4 -17 -3 -28 1 -25 5 3 9 -102 9 -233 0 -131 -3
-233 -7 -227 -5 8 -8 6 -8 -5 0 -10 3 -18 8 -18 9 0 8 -368 -2 -397 -4 -13
-12 -23 -17 -23 -6 0 -7 5 -3 12 5 7 3 8 -6 3 -20 -12 -113 -14 -127 -3 -8 7
-12 106 -13 369 -1 343 0 360 19 380 12 13 25 18 33 13 7 -4 10 -4 6 0 -3 4
10 23 31 41 37 34 72 109 71 155 -1 14 -8 43 -16 65 -8 22 -16 44 -17 49 -1 6
-15 21 -32 35 -16 15 -32 29 -33 34 -2 4 -9 4 -15 0 -7 -4 -8 0 -3 12 5 14 4
16 -8 6 -23 -19 -29 13 -32 184 -2 126 0 164 12 179 8 11 14 16 14 12 0 -4 8
-2 18 3 22 13 25 13 17 1z"/>
<path d="M1821 3064 c0 -11 3 -14 6 -6 3 7 2 16 -1 19 -3 4 -6 -2 -5 -13z"/>
<path d="M1932 2080 c0 -14 2 -19 5 -12 2 6 2 18 0 25 -3 6 -5 1 -5 -13z"/>
<path d="M3280 3299 c0 -5 5 -7 10 -4 6 3 10 8 10 11 0 2 -4 4 -10 4 -5 0 -10
-5 -10 -11z"/>
<path d="M2919 3218 c-4 -97 -2 -93 -39 -99 l-35 -6 43 -2 42 -1 0 65 c0 36
-2 65 -5 65 -3 0 -5 -10 -6 -22z"/>
<path d="M3052 3175 l-2 -71 35 4 c38 5 52 16 34 28 -8 4 -9 3 -5 -4 5 -8 -3
-12 -23 -12 -30 0 -30 0 -34 63 l-3 62 -2 -70z"/>
<path d="M3358 3163 c6 -2 18 -2 25 0 6 3 1 5 -13 5 -14 0 -19 -2 -12 -5z"/>
<path d="M1174 3145 c-43 -24 -43 -24 -44 -412 l0 -372 22 -21 c48 -45 77 -37
228 60 132 85 370 230 394 242 13 5 32 28 42 49 15 34 15 45 5 80 -10 33 -16
39 -32 34 -14 -5 -19 -2 -19 14 0 11 -4 23 -10 26 -6 4 -7 -1 -3 -11 5 -15 3
-15 -23 2 -41 25 -42 27 -14 20 21 -6 22 -5 7 4 -10 7 -24 9 -32 7 -7 -3 -22
3 -34 14 -12 11 -21 17 -21 13 0 -3 -15 5 -34 20 -19 14 -39 26 -45 26 -10 0
-35 18 -65 46 -7 6 -22 15 -34 18 -12 4 -20 12 -16 17 3 5 2 9 -3 8 -24 -4
-43 3 -43 15 0 8 -5 18 -12 22 -7 4 -8 3 -4 -4 4 -7 3 -12 -3 -12 -6 0 -15 9
-21 19 -5 11 -20 21 -32 23 -13 2 -22 9 -20 17 2 8 -3 11 -13 8 -9 -4 -15 -1
-15 7 0 9 -7 12 -20 9 -14 -4 -20 -1 -18 7 4 16 -43 19 -68 5z m5 -32 c-13
-15 -12 -15 7 -5 22 12 94 -1 94 -17 0 -4 18 -15 40 -25 22 -10 40 -21 40 -24
0 -4 20 -18 44 -32 25 -13 43 -27 41 -30 -2 -3 5 -7 17 -7 11 -1 34 -13 51
-26 28 -20 114 -74 182 -111 49 -28 74 -49 68 -59 -3 -6 -1 -7 6 -3 14 9 33
-35 21 -48 -5 -5 -6 -15 -3 -22 3 -8 -1 -14 -10 -14 -9 0 -18 -8 -21 -18 -6
-18 -88 -62 -117 -62 -12 0 -12 -2 0 -9 11 -7 10 -11 -7 -20 -11 -6 -27 -11
-35 -11 -8 0 -22 -11 -32 -24 -16 -21 -22 -23 -39 -14 -19 10 -19 9 -8 -5 11
-13 10 -15 -8 -10 -14 4 -20 1 -18 -8 2 -7 -10 -19 -27 -27 -16 -8 -40 -24
-52 -35 -13 -11 -23 -15 -23 -9 0 9 -5 9 -19 0 -11 -7 -18 -15 -16 -18 4 -7
-55 -41 -68 -40 -5 1 -16 -7 -25 -17 -22 -23 -75 -29 -91 -9 -17 21 -16 757 2
768 19 12 21 9 6 -9z"/>
<path d="M2658 3113 c12 -2 32 -2 45 0 12 2 2 4 -23 4 -25 0 -35 -2 -22 -4z"/>
<path d="M2567 2829 l2 -172 83 2 c89 3 131 17 169 57 20 21 24 38 27 102 4
76 3 78 -33 119 -42 50 -80 63 -180 63 l-70 0 2 -171z m155 140 c45 -12 113
-70 106 -90 -3 -8 -2 -24 3 -36 10 -27 -5 -81 -28 -100 -11 -9 -12 -12 -3 -8
8 4 2 -5 -15 -19 -31 -26 -43 -29 -130 -31 -57 0 -66 7 -58 47 4 18 1 28 -6
28 -7 0 -10 8 -7 18 3 10 7 50 8 89 2 44 6 69 13 66 5 -2 2 2 -7 10 -40 32 42
50 124 26z"/>
<path d="M2624 2948 c2 -8 21 -14 47 -16 56 -3 87 -19 105 -54 20 -38 17 -70
-9 -109 -23 -34 -49 -46 -102 -48 l-30 -1 3 75 c4 77 -2 125 -16 125 -15 0
-13 -190 1 -205 13 -13 129 -16 121 -3 -2 4 5 9 15 13 11 3 23 15 26 26 4 10
10 17 15 14 4 -3 6 4 3 15 -3 11 0 27 7 35 8 9 9 15 2 15 -11 0 -12 8 -13 64
-1 16 -4 24 -8 18 -5 -8 -12 -5 -21 8 -8 11 -20 20 -27 20 -7 0 -13 3 -13 8 0
9 -71 9 -87 -1 -6 -4 -14 -2 -16 3 -3 6 -4 5 -3 -2z"/>
<path d="M2910 2827 l0 -173 35 4 35 4 0 169 0 169 -35 0 -35 0 0 -173z m48
-1 c0 -133 -4 -159 -19 -135 -13 21 -11 79 4 79 9 0 9 2 0 8 -13 8 -20 172 -8
192 16 26 23 -15 23 -144z"/>
<path d="M3117 2979 c-71 -38 -103 -129 -73 -215 37 -109 166 -148 255 -76 40
32 56 60 64 114 l6 37 -85 3 -84 3 0 -34 0 -34 45 5 c50 6 59 -6 26 -36 -24
-22 -79 -30 -112 -18 -27 11 -59 65 -59 102 0 12 7 37 16 56 29 61 134 69 164
13 8 -15 14 -16 40 -6 16 6 30 16 30 22 0 14 -47 58 -77 74 -34 17 -114 12
-156 -10z m56 -12 c22 14 72 11 91 -5 10 -10 20 -16 22 -15 10 6 34 -11 34
-23 0 -18 1 -19 -66 16 -31 17 -60 27 -63 21 -3 -5 -17 -11 -31 -12 -14 -2
-34 -18 -46 -36 -12 -18 -24 -30 -26 -28 -13 13 -6 -76 8 -121 15 -43 21 -51
38 -47 17 4 18 3 6 -6 -12 -8 -3 -11 35 -12 60 -2 53 -2 90 6 26 5 25 3 -10
-14 -25 -12 -44 -16 -49 -10 -6 5 -15 9 -20 9 -6 0 -4 -5 4 -10 11 -7 11 -10
2 -10 -19 0 -86 36 -102 55 -31 37 -52 135 -29 135 5 0 8 4 4 9 -3 5 -1 12 4
16 6 3 7 13 4 23 -6 15 -5 16 12 2 17 -14 18 -14 6 7 -10 20 -9 22 5 16 13 -5
15 -3 9 7 -5 9 -4 11 3 6 6 -4 19 2 29 14 10 11 19 16 21 10 2 -5 9 -7 15 -3z
m145 -154 c20 -5 23 -10 18 -36 -7 -36 -23 -57 -43 -57 -12 0 -12 2 -1 15 38
42 39 45 23 45 -9 0 -14 4 -10 9 7 13 -30 24 -55 16 -11 -4 -20 -2 -20 4 0 12
51 14 88 4z"/>
<path d="M3420 2827 l0 -173 35 4 35 4 0 169 0 169 -35 0 -35 0 0 -173z m45
142 c11 -17 -1 -21 -15 -4 -8 9 -8 15 -2 15 6 0 14 -5 17 -11z m3 -144 c3 -95
0 -118 -13 -131 -14 -15 -16 -5 -14 119 2 91 6 134 13 131 7 -3 12 -49 14
-119z"/>
<path d="M3540 2965 l0 -35 48 0 47 0 -3 -134 -4 -134 36 -4 36 -4 0 141 0
140 50 -3 50 -4 0 36 0 36 -130 0 -130 0 0 -35z m50 3 c0 -5 4 -7 9 -4 19 12
165 10 169 -2 2 -8 -8 -12 -30 -12 -55 0 -63 -19 -61 -147 1 -62 -3 -115 -8
-118 -11 -7 -11 -7 -10 126 1 124 -7 143 -63 141 -24 -1 -36 3 -36 12 0 7 7
13 15 13 8 0 15 -4 15 -9z"/>
<path d="M3876 2928 c-15 -40 -36 -98 -47 -128 -11 -30 -29 -75 -40 -99 -11
-24 -18 -45 -16 -47 1 -2 20 -1 40 3 30 5 38 11 47 39 l12 34 68 0 68 0 9 -36
c7 -33 11 -37 46 -39 20 -1 37 2 37 6 0 9 -55 163 -70 194 -5 11 -19 48 -31
83 -21 61 -22 62 -58 62 -37 0 -38 -1 -65 -72z m92 36 c5 -9 7 -25 5 -35 -3
-11 0 -19 6 -19 6 0 8 -7 4 -17 -5 -12 -3 -14 7 -8 10 6 12 4 7 -8 -3 -10 -2
-17 3 -17 4 0 12 -15 15 -32 4 -18 12 -39 17 -45 7 -9 7 -13 0 -13 -15 0 -3
-38 14 -44 16 -6 19 -46 4 -46 -5 0 -10 8 -10 19 0 19 -24 45 -44 47 -6 0 -19
2 -28 2 -10 1 -18 7 -18 13 0 6 7 9 15 5 10 -3 20 5 30 24 9 17 12 30 7 30 -4
0 -14 20 -21 45 -7 25 -17 45 -22 45 -12 0 -11 -7 6 -64 8 -27 15 -52 15 -56
0 -4 -19 -6 -42 -5 -24 1 -42 6 -41 11 6 22 38 109 43 114 3 3 12 14 20 24 15
19 14 19 -12 2 -15 -10 -30 -26 -33 -37 -4 -11 -11 -16 -17 -13 -7 5 -9 1 -5
-9 3 -9 -1 -29 -9 -45 -16 -32 -10 -62 12 -62 8 0 14 -5 14 -11 0 -5 5 -7 12
-3 6 4 8 3 5 -3 -4 -6 -17 -8 -30 -6 -17 3 -30 -3 -45 -21 -16 -21 -21 -23
-26 -11 -6 16 13 67 23 61 3 -2 7 10 7 27 1 17 9 36 20 44 10 7 13 13 6 13 -9
0 -9 6 0 25 6 14 15 25 19 25 5 0 6 7 2 15 -6 17 24 53 44 54 7 1 16 -6 21
-15z"/>
<path d="M3835 2739 c-4 -6 -5 -12 -2 -15 2 -3 7 2 10 11 7 17 1 20 -8 4z"/>
<path d="M4140 2830 l0 -170 94 0 c52 0 101 -3 110 -6 13 -5 16 1 16 33 l0 38
-75 -3 -75 -4 0 141 0 141 -35 0 -35 0 0 -170z m49 15 c-1 -130 5 -145 59
-145 19 0 32 -3 29 -7 -10 -10 -107 -11 -113 -1 -3 4 -1 8 5 8 6 0 6 11 0 32
-12 42 -11 57 2 38 7 -11 8 -6 4 20 -12 71 -11 170 2 170 9 0 12 -31 12 -115z
m151 -157 c0 -12 -38 -10 -45 2 -4 6 5 9 19 8 15 -1 26 -6 26 -10z"/>
<path d="M3694 2539 c-16 -5 -39 -19 -51 -31 -56 -62 -26 -129 74 -162 74 -25
77 -28 69 -61 -5 -21 -12 -25 -45 -25 -31 0 -43 6 -58 26 -17 23 -21 24 -46
13 -35 -16 -34 -29 3 -64 56 -53 187 -41 210 20 15 40 12 80 -7 104 -10 11
-47 31 -83 43 -57 20 -65 26 -65 48 0 22 5 25 37 28 27 2 40 -2 51 -18 13 -18
18 -19 41 -9 31 15 33 28 6 57 -16 17 -81 44 -100 41 -3 0 -19 -5 -36 -10z
m67 -17 c0 10 2 10 6 1 2 -7 11 -13 20 -13 17 0 45 -25 37 -33 -8 -7 -35 3
-30 12 2 3 -8 7 -22 8 -15 2 -36 4 -46 6 -28 5 -56 -23 -56 -56 0 -30 15 -50
40 -55 30 -5 113 -44 122 -57 13 -17 9 -53 -7 -68 -8 -8 -11 -17 -8 -21 4 -3
-4 -6 -16 -6 -12 0 -20 -4 -17 -9 3 -5 -6 -8 -20 -8 -24 0 -23 1 11 24 31 21
36 29 33 56 -2 27 -10 36 -48 53 -24 12 -49 20 -55 18 -16 -5 -43 20 -55 52
-8 20 -8 30 -1 32 6 2 9 8 5 13 -6 11 21 41 30 32 3 -4 6 -1 6 5 0 14 31 20
53 10 11 -6 17 -5 18 4z m-91 -252 c0 -6 14 -17 31 -24 25 -10 28 -14 14 -19
-9 -4 -27 1 -40 11 -25 17 -33 42 -15 42 6 0 10 -5 10 -10z"/>
<path d="M2655 2518 c-4 -13 -31 -87 -61 -165 -30 -78 -54 -144 -54 -147 0 -2
18 -4 40 -4 37 0 40 3 46 35 l6 34 71 -3 c70 -3 71 -3 79 -35 7 -28 12 -31 43
-30 41 1 42 -9 -17 152 -23 61 -47 126 -54 145 -11 31 -16 35 -52 38 -35 3
-41 0 -47 -20z m71 -20 c4 -13 7 -29 5 -37 -1 -7 2 -10 8 -7 12 8 26 -38 16
-53 -3 -6 1 -11 10 -11 9 0 14 -4 11 -8 -2 -4 1 -21 9 -37 15 -36 45 -114 45
-120 0 -2 -7 -2 -15 1 -8 3 -14 9 -13 12 3 17 -17 44 -38 53 -24 8 -33 29 -14
29 6 0 10 14 10 30 0 17 -5 30 -11 30 -8 0 -9 11 -5 32 3 17 3 29 0 25 -10
-10 -32 17 -27 33 4 12 3 13 -5 1 -6 -8 -15 -10 -22 -6 -9 5 -11 4 -6 -3 5 -8
0 -12 -14 -12 -18 0 -19 3 -10 20 6 11 7 20 3 20 -13 1 30 30 43 30 7 0 16
-10 20 -22z m-16 -65 c0 -10 9 -37 19 -60 l19 -41 -44 -4 c-49 -4 -55 7 -29
52 8 14 14 35 15 48 0 26 20 31 20 5z m-40 -6 c0 -7 -9 -23 -20 -35 -12 -12
-17 -22 -13 -22 4 0 8 -13 8 -30 0 -16 -3 -30 -6 -30 -4 0 -9 -9 -12 -21 -3
-12 -10 -18 -16 -14 -7 3 -8 0 -5 -10 7 -17 -14 -48 -27 -39 -15 9 -10 26 6
20 12 -4 14 0 9 19 -4 16 0 30 11 41 9 9 14 23 11 31 -4 8 -1 11 5 7 6 -4 9 1
8 12 -2 11 3 34 11 52 15 33 30 42 30 19z m5 -127 c-27 -12 -43 -12 -25 0 8 5
22 9 30 9 10 0 8 -3 -5 -9z m55 0 c0 -5 -2 -10 -4 -10 -3 0 -8 5 -11 10 -3 6
-1 10 4 10 6 0 11 -4 11 -10z"/>
<path d="M2905 2371 l0 -169 33 0 32 0 0 60 c0 58 1 59 26 56 20 -2 33 -16 56
-58 28 -52 32 -55 69 -56 26 -1 38 2 34 10 -3 6 -8 19 -11 29 -4 9 -10 17 -15
17 -5 0 -9 6 -9 14 0 7 -7 19 -15 26 -19 16 -20 40 -1 40 22 0 46 46 46 87 0
78 -54 113 -172 113 l-73 0 0 -169z m132 135 c4 -3 -7 -6 -23 -6 -47 -1 -64
-21 -64 -74 0 -25 5 -46 10 -46 6 0 10 22 10 49 0 49 0 50 33 49 43 0 77 -23
77 -51 0 -34 -19 -47 -66 -47 -24 0 -46 -4 -49 -10 -3 -5 1 -10 9 -10 22 0 20
-17 -4 -32 -15 -10 -20 -24 -20 -55 0 -43 -19 -62 -21 -20 -3 121 1 251 9 256
12 7 91 5 99 -3z m53 -6 c8 -5 11 -10 7 -10 -4 0 1 -10 13 -22 20 -22 28 -68
11 -68 -8 0 -20 31 -20 53 0 4 -13 19 -28 32 -28 24 -15 36 17 15z m7 -136
c-14 -12 -23 -25 -20 -28 4 -3 -2 -6 -12 -6 -17 0 -18 -1 -2 -12 9 -7 25 -30
36 -50 25 -49 4 -50 -27 -2 -13 20 -18 33 -10 29 7 -5 4 1 -7 12 -11 10 -28
22 -37 26 -40 15 1 36 54 28 4 0 10 10 14 24 5 21 9 23 21 13 13 -11 12 -15
-10 -34z"/>
<path d="M3190 2506 l0 -33 45 3 46 4 -2 -138 -1 -137 36 -2 37 -2 -2 137 -1
137 46 -1 c46 -2 46 -1 46 32 l0 34 -125 0 -125 0 0 -34z m40 4 c0 -5 -4 -10
-10 -10 -5 0 -10 5 -10 10 0 6 5 10 10 10 6 0 10 -4 10 -10z m94 -2 c-6 -9 10
-11 19 -2 11 11 67 12 67 2 0 -5 -4 -6 -10 -3 -5 3 -10 2 -10 -3 0 -5 -11 -9
-25 -9 -14 0 -28 -3 -31 -6 -4 -3 -5 -63 -5 -132 2 -100 -1 -126 -11 -123 -9
3 -14 34 -15 109 -3 131 -7 147 -38 155 -40 10 -29 22 19 21 25 0 43 -4 40 -9z"/>
<path d="M3480 2371 l0 -168 40 0 40 0 0 168 0 169 -40 0 -40 0 0 -169z m59
16 c-2 -131 -5 -157 -20 -157 -5 0 -7 48 -6 110 2 71 -1 110 -8 110 -6 0 -7 3
0 8 6 4 10 16 9 27 -1 26 5 37 17 29 5 -3 9 -58 8 -127z"/>
<path d="M3890 2506 l0 -34 46 1 46 2 -1 -138 -2 -137 37 2 37 3 -2 139 -2
139 50 -6 51 -6 0 34 0 35 -130 0 -130 0 0 -34z m144 2 c-6 -10 -5 -10 7 -1 9
7 30 11 47 10 34 -2 41 -11 17 -21 -8 -3 -15 -1 -15 5 0 5 -13 3 -30 -6 -32
-17 -33 -22 -31 -140 0 -27 -2 -67 -5 -88 -11 -70 -18 -27 -15 82 3 128 -5
150 -59 152 l-35 2 35 7 c59 13 92 12 84 -2z"/>
<path d="M1556 2414 c-39 -23 -76 -50 -83 -60 -10 -14 -13 -82 -13 -289 0
-331 -6 -315 114 -315 66 0 87 4 97 17 11 13 14 79 16 321 2 394 -2 405 -131
326z m98 -32 c11 -57 4 -547 -7 -561 -9 -12 -9 -13 1 -7 15 9 15 1 2 -25 -9
-17 -18 -18 -68 -13 -34 4 -62 13 -71 23 -11 14 -12 13 -6 -9 6 -20 5 -23 -6
-13 -7 8 -12 35 -11 70 1 32 3 150 4 263 2 113 5 212 8 220 6 17 92 80 102 74
4 -3 9 0 13 5 10 17 34 1 39 -27z"/>
<path d="M1186 2185 c-13 -20 -16 -56 -16 -214 0 -189 0 -190 24 -209 20 -15
39 -18 96 -17 106 3 104 -1 108 223 3 179 2 189 -18 215 -20 25 -27 27 -100
27 -72 0 -79 -2 -94 -25z m72 -7 c9 -9 12 -9 12 0 0 16 30 15 67 0 29 -13 30
-15 29 -78 -1 -36 1 -80 5 -97 4 -19 3 -30 -2 -27 -10 6 -4 -113 7 -148 4 -15
3 -18 -6 -13 -9 5 -10 2 -6 -13 5 -15 1 -21 -20 -25 -28 -5 -133 -1 -140 6 -2
2 -5 86 -7 188 -3 175 -2 185 18 201 24 21 28 21 43 6z"/>
<path d="M3266 2091 c-19 -7 -19 -8 2 -13 12 -4 20 -2 16 3 -3 5 5 9 16 9 27
0 90 -29 90 -41 0 -5 5 -9 10 -9 24 0 -16 39 -50 49 -42 12 -57 13 -84 2z"/>
<path d="M2645 2081 c74 -7 152 -30 140 -43 -3 -3 1 -11 9 -17 12 -10 14 -9 9
8 -10 39 -51 55 -148 57 l-90 1 80 -6z"/>
<path d="M2885 2081 l40 -6 5 -122 c3 -67 9 -125 14 -130 5 -5 6 0 3 10 -4 10
-7 72 -7 138 l0 119 -47 -1 -48 -2 40 -6z"/>
<path d="M3050 1967 c0 -82 -4 -127 -12 -135 -8 -8 -8 -12 -1 -12 19 0 23 28
23 144 l0 113 30 1 30 1 0 -115 c0 -70 4 -114 10 -114 13 0 11 198 -2 223 -6
11 -21 17 -43 17 l-35 0 0 -123z"/>
<path d="M3498 2083 c12 -2 32 -2 45 0 12 2 2 4 -23 4 -25 0 -35 -2 -22 -4z"/>
<path d="M3713 2083 l37 -4 -2 -162 -3 -162 -25 0 c-23 0 -25 4 -30 60 l-5 60
-55 7 c-31 4 -59 3 -64 -3 -6 -5 13 -9 52 -9 l61 0 3 -62 3 -63 34 -3 c20 -2
37 2 42 10 10 15 12 298 3 322 -4 12 -18 16 -48 14 l-41 -1 38 -4z"/>
<path d="M3208 2058 c-27 -34 -21 -45 7 -14 14 15 25 29 25 32 0 11 -17 2 -32
-18z"/>
<path d="M3480 2055 c0 -8 2 -15 4 -15 2 0 6 7 10 15 3 8 1 15 -4 15 -6 0 -10
-7 -10 -15z"/>
<path d="M2633 2017 c-12 -19 -14 -68 -3 -85 7 -13 9 -5 10 31 l0 47 42 0 c49
0 47 5 -4 13 -23 3 -40 1 -45 -6z"/>
<path d="M3275 2020 c-3 -5 -1 -10 4 -10 6 0 11 5 11 10 0 6 -2 10 -4 10 -3 0
-8 -4 -11 -10z"/>
<path d="M3330 2024 c0 -6 8 -18 19 -28 14 -13 23 -14 42 -6 l24 11 -24 -5
c-16 -3 -30 2 -42 17 -10 12 -18 17 -19 11z"/>
<path d="M3405 2020 c3 -5 8 -10 11 -10 2 0 4 5 4 10 0 6 -5 10 -11 10 -5 0
-7 -4 -4 -10z"/>
<path d="M3481 2004 c0 -11 3 -14 6 -6 3 7 2 16 -1 19 -3 4 -6 -2 -5 -13z"/>
<path d="M3181 1992 c-1 -27 25 -82 39 -82 16 0 11 20 -6 27 -8 3 -13 12 -10
20 3 8 2 11 -3 8 -5 -3 -12 7 -14 22 -3 23 -4 24 -6 5z"/>
<path d="M3681 1983 c-1 -20 -7 -22 -68 -26 l-68 -3 68 -2 c69 -2 87 8 74 40
-3 7 -6 3 -6 -9z"/>
<path d="M2807 1970 c3 -11 7 -20 9 -20 2 0 4 9 4 20 0 11 -4 20 -9 20 -5 0
-7 -9 -4 -20z"/>
<path d="M3250 1975 c0 -2 10 -10 23 -16 20 -11 21 -11 8 4 -13 16 -31 23 -31
12z"/>
<path d="M3483 1940 c0 -25 2 -35 4 -22 2 12 2 32 0 45 -2 12 -4 2 -4 -23z"/>
<path d="M3314 1945 c11 -8 27 -15 35 -15 13 1 12 4 -3 15 -11 8 -27 15 -35
15 -13 -1 -12 -4 3 -15z"/>
<path d="M2708 1928 c-14 -13 -15 -18 -4 -18 16 0 40 26 29 33 -4 2 -16 -4
-25 -15z"/>
<path d="M2800 1930 c0 -5 -9 -19 -21 -31 -11 -11 -18 -23 -15 -26 8 -8 46 37
46 54 0 7 -2 13 -5 13 -3 0 -5 -4 -5 -10z"/>
<path d="M3370 1931 c0 -6 9 -15 20 -21 11 -6 20 -17 20 -25 0 -8 5 -15 10
-15 16 0 11 24 -8 41 -29 25 -42 31 -42 20z"/>
<path d="M3240 1900 c0 -6 7 -10 15 -10 8 0 17 0 20 0 16 0 6 14 -12 16 -13 2
-23 -1 -23 -6z"/>
<path d="M3325 1880 c3 -5 8 -10 11 -10 2 0 4 5 4 10 0 6 -5 10 -11 10 -5 0
-7 -4 -4 -10z"/>
<path d="M3482 1855 c0 -16 2 -22 5 -12 2 9 2 23 0 30 -3 6 -5 -1 -5 -18z"/>
<path d="M2630 1836 c-5 -14 -8 -37 -7 -53 2 -24 -2 -28 -25 -28 -15 -1 -30
-4 -34 -8 -4 -4 11 -7 34 -7 l42 0 0 54 0 55 53 4 52 3 -53 2 c-47 2 -53 0
-62 -22z"/>
<path d="M2850 1845 c0 -8 5 -15 10 -15 6 0 10 7 10 15 0 8 -4 15 -10 15 -5 0
-10 -7 -10 -15z"/>
<path d="M3204 1844 c-19 -15 -19 -15 1 -6 11 5 27 12 35 15 13 5 13 6 -1 6
-8 1 -24 -6 -35 -15z"/>
<path d="M3350 1844 c0 -8 5 -12 10 -9 6 3 10 10 10 16 0 5 -4 9 -10 9 -5 0
-10 -7 -10 -16z"/>
<path d="M3431 1844 c0 -11 3 -14 6 -6 3 7 2 16 -1 19 -3 4 -6 -2 -5 -13z"/>
<path d="M3111 1824 c0 -11 3 -14 6 -6 3 7 2 16 -1 19 -3 4 -6 -2 -5 -13z"/>
<path d="M3170 1834 c1 -16 29 -60 29 -44 0 8 -6 24 -14 34 -8 11 -15 16 -15
10z"/>
<path d="M3240 1830 c0 -5 5 -10 10 -10 6 0 10 5 10 10 0 6 -4 10 -10 10 -5 0
-10 -4 -10 -10z"/>
<path d="M2865 1810 c3 -5 8 -10 11 -10 2 0 4 5 4 10 0 6 -5 10 -11 10 -5 0
-7 -4 -4 -10z"/>
<path d="M2960 1811 c0 -5 11 -8 25 -7 38 4 43 16 7 16 -18 0 -32 -4 -32 -9z"/>
<path d="M3275 1810 c3 -5 8 -10 11 -10 2 0 4 5 4 10 0 6 -5 10 -11 10 -5 0
-7 -4 -4 -10z"/>
<path d="M3320 1810 c0 -5 5 -10 10 -10 6 0 10 5 10 10 0 6 -4 10 -10 10 -5 0
-10 -4 -10 -10z"/>
<path d="M3416 1805 c4 -8 1 -15 -5 -15 -6 0 -11 -5 -11 -11 0 -8 5 -8 15 1
17 14 20 40 5 40 -5 0 -7 -7 -4 -15z"/>
<path d="M3480 1804 c0 -8 5 -12 10 -9 6 3 10 10 10 16 0 5 -4 9 -10 9 -5 0
-10 -7 -10 -16z"/>
<path d="M3071 1773 c-13 -12 -28 -20 -32 -17 -5 3 -9 0 -9 -5 0 -6 6 -11 13
-11 18 0 72 46 61 52 -5 2 -20 -6 -33 -19z"/>
<path d="M2925 1754 c8 -9 32 -17 53 -19 20 -1 26 0 12 2 -13 3 -33 11 -44 19
-28 19 -41 18 -21 -2z"/>
<path d="M3340 1750 c0 -6 7 -10 15 -10 8 0 15 2 15 4 0 2 -7 6 -15 10 -8 3
-15 1 -15 -4z"/>
<path d="M3483 1748 c-2 -5 15 -8 38 -8 23 0 39 3 36 7 -10 9 -68 10 -74 1z"/>
<path d="M3260 1740 c34 -11 62 -12 56 -2 -3 5 -22 9 -43 9 -33 1 -35 0 -13
-7z"/>
</g>
</svg>
